<svg xmlns="http://www.w3.org/2000/svg" version="1.1" xmlns:xlink="http://www.w3.org/1999/xlink" xmlns:svgjs="http://svgjs.dev/svgjs" width="1000" height="1000" viewBox="0 0 1000 1000"><rect width="1000" height="1000" fill="#ffffff"></rect><g transform="matrix(0.7,0,0,0.7,149.57577647773246,362.6799183275732)"><svg viewBox="0 0 396 156" data-background-color="#ffffff" preserveAspectRatio="xMidYMid meet" height="393" width="1000" xmlns="http://www.w3.org/2000/svg" xmlns:xlink="http://www.w3.org/1999/xlink"><g id="tight-bounds" transform="matrix(1,0,0,1,0.23998930688276232,-0.13037898619197108)"><svg viewBox="0 0 395.52 156.26075797238394" height="156.26075797238394" width="395.52"><g><svg viewBox="0 0 395.52 156.26075797238394" height="156.26075797238394" width="395.52"><g><svg viewBox="0 0 395.52 156.26075797238394" height="156.26075797238394" width="395.52"><g id="textblocktransform"><svg viewBox="0 0 395.52 156.26075797238394" height="156.26075797238394" width="395.52" id="textblock"><g><svg viewBox="0 0 395.52 107.60921283823527" height="107.60921283823527" width="395.52"><rect width="395.52" height="107.60921283823527" x="0" y="0" opacity="1" fill="#ed1703" data-fill-palette-color="tertiary"></rect><g transform="matrix(1,0,0,1,23.461705032,23.461705032000005)"><svg width="348.596589936" viewBox="3.700000047683716 -35 201.02999877929688 35" height="60.685802774235256" data-palette-color="#ffffff"><path d="M3.7 0L3.7-35 12.7-35Q18.2-35 21.28-32.1 24.35-29.2 24.35-23.65L24.35-23.65Q24.35-18.1 21.28-15.18 18.2-12.25 12.7-12.25L12.7-12.25 8.3-12.25 8.3 0 3.7 0ZM8.3-16.45L12.3-16.45Q19.6-16.45 19.6-23.65L19.6-23.65Q19.6-30.85 12.3-30.85L12.3-30.85 8.3-30.85 8.3-16.45ZM28.55 0L28.55-35 47.25-35 47.25-30.85 33.1-30.85 33.1-20.4 44.3-20.4 44.3-16.2 33.1-16.2 33.1-4.15 47.65-4.15 47.65 0 28.55 0ZM52.39 0L52.39-35 71.09-35 71.09-30.85 56.95-30.85 56.95-20.4 68.14-20.4 68.14-16.2 56.95-16.2 56.95-4.15 71.5-4.15 71.5 0 52.39 0ZM76.59 0L76.59-35 85.59-35Q91.09-35 94.17-32.27 97.24-29.55 97.24-24.3L97.24-24.3Q97.24-21.3 95.82-18.88 94.39-16.45 91.84-15.05L91.84-15.05 98.84 0 93.44 0 87.19-13.7Q86.39-13.6 85.54-13.6L85.54-13.6 81.14-13.6 81.14 0 76.59 0ZM81.14-17.8L85.19-17.8Q88.99-17.8 90.74-19.45 92.49-21.1 92.49-24.3L92.49-24.3Q92.49-27.55 90.74-29.2 88.99-30.85 85.19-30.85L85.19-30.85 81.14-30.85 81.14-17.8ZM121.74 0L118.94-9.5 108.09-9.5 105.29 0 100.39 0 111.14-35 115.84-35 126.59 0 121.74 0ZM109.34-13.75L117.69-13.75 113.49-27.95 109.34-13.75ZM130.29 0L130.29-35 135.44-35 149.29-9.4 149.29-35 153.84-35 153.84 0 149.59 0 134.84-27.05 134.84 0 130.29 0ZM178.88 0L176.08-9.5 165.23-9.5 162.44 0 157.53 0 168.28-35 172.98-35 183.73 0 178.88 0ZM166.48-13.75L174.83-13.75 170.63-27.95 166.48-13.75ZM191.43 0L191.43-30.85 182.73-30.85 182.73-35 204.73-35 204.73-30.85 196.03-30.85 196.03 0 191.43 0Z" opacity="1" transform="matrix(1,0,0,1,0,0)" fill="#ffffff" class="undefined-text-0" data-fill-palette-color="quaternary" id="text-0"></path></svg></g></svg></g><g transform="matrix(1,0,0,1,0,119.34006535423526)"><svg viewBox="0 0 395.52 36.92069261814868" height="36.92069261814868" width="395.52"><g transform="matrix(1,0,0,1,0,0)"><svg width="395.52" viewBox="0.699999988079071 -35.349998474121094 384.0099792480469 35.849998474121094" height="36.92069261814868" data-palette-color="#ed1703"><path d="M10.5 0.5L10.5 0.5Q7.8 0.5 5.58-0.88 3.35-2.25 2.02-4.53 0.7-6.8 0.7-9.55L0.7-9.55 0.7-11.85Q0.7-12.1 0.95-12.1L0.95-12.1 6.55-12.1Q6.75-12.1 6.75-11.85L6.75-11.85 6.75-9.55Q6.75-7.9 7.85-6.73 8.95-5.55 10.5-5.55L10.5-5.55Q12.05-5.55 13.15-6.75 14.25-7.95 14.25-9.55L14.25-9.55Q14.25-11.4 11.85-12.75L11.85-12.75Q11.05-13.2 9.35-14.15 7.65-15.1 6.15-15.95L6.15-15.95Q3.4-17.55 2.08-19.98 0.75-22.4 0.75-25.45L0.75-25.45Q0.75-28.25 2.1-30.48 3.45-32.7 5.68-34 7.9-35.3 10.5-35.3L10.5-35.3Q13.15-35.3 15.38-33.98 17.6-32.65 18.93-30.43 20.25-28.2 20.25-25.45L20.25-25.45 20.25-21.35Q20.25-21.15 20.05-21.15L20.05-21.15 14.45-21.15Q14.25-21.15 14.25-21.35L14.25-21.35 14.2-25.45Q14.2-27.2 13.1-28.3 12-29.4 10.5-29.4L10.5-29.4Q8.95-29.4 7.85-28.23 6.75-27.05 6.75-25.45L6.75-25.45Q6.75-23.8 7.45-22.7 8.15-21.6 10-20.6L10-20.6Q10.25-20.45 10.98-20.08 11.7-19.7 12.55-19.23 13.4-18.75 14.08-18.4 14.75-18.05 14.9-17.95L14.9-17.95Q17.4-16.55 18.85-14.53 20.3-12.5 20.3-9.55L20.3-9.55Q20.3-6.7 18.98-4.42 17.65-2.15 15.43-0.83 13.2 0.5 10.5 0.5ZM33.05 0.5L33.05 0.5Q30.35 0.5 28.12-0.88 25.9-2.25 24.55-4.53 23.2-6.8 23.2-9.55L23.2-9.55 23.25-25.4Q23.25-28.15 24.57-30.4 25.9-32.65 28.15-34 30.4-35.35 33.05-35.35L33.05-35.35Q35.75-35.35 37.95-34 40.15-32.65 41.47-30.4 42.8-28.15 42.8-25.4L42.8-25.4 42.85-9.55Q42.85-6.8 41.52-4.53 40.2-2.25 37.97-0.88 35.75 0.5 33.05 0.5ZM33.05-5.55L33.05-5.55Q34.55-5.55 35.67-6.78 36.8-8 36.8-9.55L36.8-9.55 36.75-25.4Q36.75-27.05 35.7-28.2 34.65-29.35 33.05-29.35L33.05-29.35Q31.5-29.35 30.4-28.23 29.3-27.1 29.3-25.4L29.3-25.4 29.3-9.55Q29.3-7.9 30.4-6.73 31.5-5.55 33.05-5.55ZM52.5 0L46.9 0Q46.65 0 46.65-0.25L46.65-0.25 46.75-34.6Q46.75-34.8 46.95-34.8L46.95-34.8 62.95-34.8Q63.2-34.8 63.2-34.6L63.2-34.6 63.2-28.95Q63.2-28.75 63-28.75L63-28.75 52.75-28.75 52.75-21 63-21Q63.2-21 63.2-20.75L63.2-20.75 63.25-15.1Q63.25-14.9 63-14.9L63-14.9 52.75-14.9 52.75-0.25Q52.75 0 52.5 0L52.5 0ZM78.34 0L72.69 0Q72.49 0 72.49-0.25L72.49-0.25 72.49-28.75 65.99-28.75Q65.74-28.75 65.74-29L65.74-29 65.79-34.6Q65.79-34.8 65.99-34.8L65.99-34.8 84.99-34.8Q85.24-34.8 85.24-34.6L85.24-34.6 85.24-29Q85.24-28.75 85.04-28.75L85.04-28.75 78.49-28.75 78.54-0.25Q78.54 0 78.34 0L78.34 0ZM98.34 0L92.29 0Q92.09 0 92.04-0.25L92.04-0.25 86.14-34.6Q86.09-34.8 86.29-34.8L86.29-34.8 91.89-34.8Q92.09-34.8 92.14-34.6L92.14-34.6 95.34-12 98.64-34.6Q98.69-34.8 98.94-34.8L98.94-34.8 103.44-34.8Q103.64-34.8 103.69-34.6L103.69-34.6 106.94-12 110.19-34.6Q110.24-34.8 110.44-34.8L110.44-34.8 115.99-34.8Q116.24-34.8 116.19-34.6L116.19-34.6 110.24-0.25Q110.19-0.15 110.09-0.08 109.99 0 109.99 0L109.99 0 103.94 0Q103.79 0 103.69-0.25L103.69-0.25 101.14-18.2 98.59-0.25Q98.54 0 98.34 0L98.34 0ZM115.34-0.25L115.34-0.25 121.54-34.6Q121.59-34.8 121.79-34.8L121.79-34.8 129.04-34.8Q129.24-34.8 129.29-34.6L129.29-34.6 135.24-0.25Q135.29 0 135.04 0L135.04 0 129.49 0Q129.29 0 129.24-0.25L129.24-0.25 128.69-3.9 121.89-3.9 121.34-0.25Q121.29 0 121.09 0L121.09 0 115.54 0Q115.34 0 115.34-0.25ZM125.14-23.3L122.89-9.25 127.69-9.25 125.64-23.3 125.34-25.15 125.14-23.3ZM144.24 0L138.59 0Q138.39 0 138.39-0.25L138.39-0.25 138.49-34.6Q138.49-34.8 138.69-34.8L138.69-34.8 148.79-34.8Q151.49-34.8 153.76-33.48 156.04-32.15 157.39-29.93 158.74-27.7 158.74-24.9L158.74-24.9Q158.74-23.05 158.19-21.58 157.64-20.1 156.89-19.07 156.14-18.05 155.54-17.55L155.54-17.55Q158.24-14.55 158.24-10.5L158.24-10.5 158.29-0.25Q158.29 0 158.04 0L158.04 0 152.39 0Q152.19 0 152.19-0.15L152.19-0.15 152.19-10.5Q152.19-12.3 150.91-13.63 149.64-14.95 147.79-14.95L147.79-14.95 144.49-14.95 144.44-0.25Q144.44 0 144.24 0L144.24 0ZM144.49-28.8L144.49-20.95 148.79-20.95Q150.34-20.95 151.54-22.1 152.74-23.25 152.74-24.9L152.74-24.9Q152.74-26.5 151.56-27.65 150.39-28.8 148.79-28.8L148.79-28.8 144.49-28.8ZM178.83 0L162.68 0Q162.48 0 162.48-0.25L162.48-0.25 162.53-34.6Q162.53-34.8 162.73-34.8L162.73-34.8 178.78-34.8Q178.98-34.8 178.98-34.55L178.98-34.55 178.98-28.95Q178.98-28.75 178.78-28.75L178.78-28.75 168.53-28.75 168.53-20.95 178.78-20.95Q178.98-20.95 178.98-20.75L178.98-20.75 179.03-15.1Q179.03-14.9 178.83-14.9L178.83-14.9 168.53-14.9 168.53-6.15 178.83-6.15Q179.03-6.15 179.03-5.9L179.03-5.9 179.03-0.2Q179.03 0 178.83 0L178.83 0ZM200.08-0.05L191.13 0Q190.88 0 190.88-0.25L190.88-0.25 190.98-34.6Q190.98-34.8 191.18-34.8L191.18-34.8 200.53-34.85Q203.28-34.9 205.55-33.55 207.83-32.2 209.18-29.93 210.53-27.65 210.53-24.9L210.53-24.9 210.53-10.55Q210.53-7.65 209.13-5.28 207.73-2.9 205.38-1.5 203.03-0.1 200.08-0.05L200.08-0.05ZM197.03-28.8L196.98-6.15 200.08-6.15Q201.93-6.15 203.2-7.45 204.48-8.75 204.48-10.55L204.48-10.55 204.48-24.95Q204.48-26.55 203.3-27.73 202.13-28.9 200.53-28.85L200.53-28.85 197.03-28.8ZM230.83 0L214.68 0Q214.48 0 214.48-0.25L214.48-0.25 214.53-34.6Q214.53-34.8 214.73-34.8L214.73-34.8 230.78-34.8Q230.98-34.8 230.98-34.55L230.98-34.55 230.98-28.95Q230.98-28.75 230.78-28.75L230.78-28.75 220.53-28.75 220.53-20.95 230.78-20.95Q230.98-20.95 230.98-20.75L230.98-20.75 231.03-15.1Q231.03-14.9 230.83-14.9L230.83-14.9 220.53-14.9 220.53-6.15 230.83-6.15Q231.03-6.15 231.03-5.9L231.03-5.9 231.03-0.2Q231.03 0 230.83 0L230.83 0ZM247.12 0L241.07 0Q240.87 0 240.82-0.25L240.82-0.25 233.92-34.6Q233.87-34.8 234.12-34.8L234.12-34.8 239.77-34.8Q239.97-34.8 240.02-34.6L240.02-34.6 244.12-11.7 248.12-34.6Q248.17-34.8 248.37-34.8L248.37-34.8 253.97-34.8Q254.22-34.8 254.17-34.6L254.17-34.6 247.37-0.25Q247.32 0 247.12 0L247.12 0ZM273.47 0L257.32 0Q257.12 0 257.12-0.25L257.12-0.25 257.17-34.6Q257.17-34.8 257.37-34.8L257.37-34.8 273.42-34.8Q273.62-34.8 273.62-34.55L273.62-34.55 273.62-28.95Q273.62-28.75 273.42-28.75L273.42-28.75 263.17-28.75 263.17-20.95 273.42-20.95Q273.62-20.95 273.62-20.75L273.62-20.75 273.67-15.1Q273.67-14.9 273.47-14.9L273.47-14.9 263.17-14.9 263.17-6.15 273.47-6.15Q273.67-6.15 273.67-5.9L273.67-5.9 273.67-0.2Q273.67 0 273.47 0L273.47 0ZM294.47 0L278.32 0Q278.12 0 278.12-0.25L278.12-0.25 278.17-34.55Q278.17-34.8 278.42-34.8L278.42-34.8 283.97-34.8Q284.22-34.8 284.22-34.55L284.22-34.55 284.17-6.15 294.47-6.15Q294.72-6.15 294.72-5.9L294.72-5.9 294.72-0.25Q294.72 0 294.47 0L294.47 0ZM306.52 0.5L306.52 0.5Q303.82 0.5 301.59-0.88 299.37-2.25 298.02-4.53 296.67-6.8 296.67-9.55L296.67-9.55 296.72-25.4Q296.72-28.15 298.04-30.4 299.37-32.65 301.62-34 303.87-35.35 306.52-35.35L306.52-35.35Q309.22-35.35 311.42-34 313.62-32.65 314.94-30.4 316.27-28.15 316.27-25.4L316.27-25.4 316.32-9.55Q316.32-6.8 314.99-4.53 313.67-2.25 311.44-0.88 309.22 0.5 306.52 0.5ZM306.52-5.55L306.52-5.55Q308.02-5.55 309.14-6.78 310.27-8 310.27-9.55L310.27-9.55 310.22-25.4Q310.22-27.05 309.17-28.2 308.12-29.35 306.52-29.35L306.52-29.35Q304.97-29.35 303.87-28.23 302.77-27.1 302.77-25.4L302.77-25.4 302.77-9.55Q302.77-7.9 303.87-6.73 304.97-5.55 306.52-5.55ZM325.96 0L320.36 0Q320.11 0 320.11-0.25L320.11-0.25 320.21-34.6Q320.21-34.8 320.41-34.8L320.41-34.8 330.01-34.8Q334.61-34.8 337.29-32 339.96-29.2 339.96-24.4L339.96-24.4Q339.96-20.85 338.56-18.25 337.16-15.65 334.91-14.25 332.66-12.85 330.01-12.85L330.01-12.85 326.21-12.85 326.21-0.25Q326.21 0 325.96 0L325.96 0ZM326.21-28.8L326.21-18.9 330.01-18.9Q331.61-18.9 332.79-20.43 333.96-21.95 333.96-24.4L333.96-24.4Q333.96-26.35 332.91-27.6 331.86-28.85 330.01-28.85L330.01-28.85 326.21-28.8ZM359.71 0L343.56 0Q343.36 0 343.36-0.25L343.36-0.25 343.41-34.6Q343.41-34.8 343.61-34.8L343.61-34.8 359.66-34.8Q359.86-34.8 359.86-34.55L359.86-34.55 359.86-28.95Q359.86-28.75 359.66-28.75L359.66-28.75 349.41-28.75 349.41-20.95 359.66-20.95Q359.86-20.95 359.86-20.75L359.86-20.75 359.91-15.1Q359.91-14.9 359.71-14.9L359.71-14.9 349.41-14.9 349.41-6.15 359.71-6.15Q359.91-6.15 359.91-5.9L359.91-5.9 359.91-0.2Q359.91 0 359.71 0L359.71 0ZM370.21 0L364.56 0Q364.36 0 364.36-0.25L364.36-0.25 364.46-34.6Q364.46-34.8 364.66-34.8L364.66-34.8 374.76-34.8Q377.46-34.8 379.73-33.48 382.01-32.15 383.36-29.93 384.71-27.7 384.71-24.9L384.71-24.9Q384.71-23.05 384.16-21.58 383.61-20.1 382.86-19.07 382.11-18.05 381.51-17.55L381.51-17.55Q384.21-14.55 384.21-10.5L384.21-10.5 384.26-0.25Q384.26 0 384.01 0L384.01 0 378.36 0Q378.16 0 378.16-0.15L378.16-0.15 378.16-10.5Q378.16-12.3 376.88-13.63 375.61-14.95 373.76-14.95L373.76-14.95 370.46-14.95 370.41-0.25Q370.41 0 370.21 0L370.21 0ZM370.46-28.8L370.46-20.95 374.76-20.95Q376.31-20.95 377.51-22.1 378.71-23.25 378.71-24.9L378.71-24.9Q378.71-26.5 377.53-27.65 376.36-28.8 374.76-28.8L374.76-28.8 370.46-28.8Z" opacity="1" transform="matrix(1,0,0,1,0,0)" fill="#ed1703" class="undefined-text-1" data-fill-palette-color="secondary" id="text-1"></path></svg></g></svg></g></svg></g></svg></g></svg></g><defs></defs></svg><rect width="395.52" height="156.26075797238394" fill="none" stroke="none" visibility="hidden"></rect></g></svg></g></svg>